#N canvas 670 155 634 495 10;
#X text 424 11 ............................;
#X text 424 21 . ____ ._____ _ .......___ .;
#X text 424 31 .| __ )| ____| |....../ _ |.;
#X text 424 51 .| |_) | |___| |___ / ___ |.;
#X text 424 61 .|____/|_____|_____/_/..._|.io;
#X text 424 71 ............................;
#X text 424 41 .| __ || __|.| |...../ _| |.;
#X obj 258 390 dac~ 3;
#X obj 78 98 adc~ 3;
#X obj 118 235 print Lumin:;
#X obj 118 209 snapshot~;
#X obj 118 183 metro 500;
#X obj 118 159 loadbang;
#X obj 258 360 cos~;
#X obj 258 331 phasor~ 0.1;
#X obj 78 412 dac~ 1 2;
#X obj 259 114 adc~ 4;
#X obj 304 212 snapshot~;
#X obj 304 184 metro 500;
#X obj 304 160 loadbang;
#X obj 304 243 print pot1:;
#X obj 78 347 osc~;
#X obj 78 377 *~ 0.5;
#X text 268 93 Potentiometer;
#X text 263 418 LED;
#X text 83 77 LDR;
#X obj 78 322 *~ 100000;
#X text 72 437 Audio Out;
#X connect 8 0 10 0;
#X connect 8 0 26 0;
#X connect 10 0 9 0;
#X connect 11 0 10 0;
#X connect 12 0 11 0;
#X connect 13 0 7 0;
#X connect 14 0 13 0;
#X connect 16 0 17 0;
#X connect 16 0 14 0;
#X connect 17 0 20 0;
#X connect 18 0 17 0;
#X connect 19 0 18 0;
#X connect 21 0 22 0;
#X connect 22 0 15 0;
#X connect 22 0 15 1;
#X connect 26 0 21 0;
