#N canvas 114 138 618 359 12;
#X obj 193 311 dac~ 3 4 5 6 7 8 9 10;
#X obj 91 160 phasor~;
#X obj 132 185 phasor~;
#X obj 173 210 phasor~;
#X obj 214 135 phasor~;
#X obj 255 160 phasor~;
#X obj 296 186 phasor~;
#X obj 337 212 phasor~;
#X obj 51 78 route /led1 /led2 /led3 /led4 /led5 /led6 /led7 /led8
/connection;
#X obj 378 145 print Max PD is connected;
#X obj 476 62 loadbang;
#X obj 51 134 phasor~ 0.5;
#X floatatom 24 218 5 0 0 0 - - -;
#X obj 51 49 netreceive 9999;
#X connect 1 0 0 1;
#X connect 2 0 0 2;
#X connect 3 0 0 3;
#X connect 4 0 0 4;
#X connect 5 0 0 5;
#X connect 6 0 0 6;
#X connect 7 0 0 7;
#X connect 8 0 11 0;
#X connect 8 0 12 0;
#X connect 8 1 1 0;
#X connect 8 2 2 0;
#X connect 8 3 3 0;
#X connect 8 4 4 0;
#X connect 8 5 5 0;
#X connect 8 6 6 0;
#X connect 8 7 7 0;
#X connect 8 8 9 0;
#X connect 10 0 9 0;
#X connect 11 0 0 0;
#X connect 13 0 8 0;
