#N canvas 85 51 454 610 12;
#X floatatom 53 211 5 0 0 0 - - -;
#X obj 179 323 oscformat;
#X msg 99 448 disconnect;
#X obj 179 494 netsend -u -b;
#X obj 179 354 list prepend send;
#X obj 179 385 list trim;
#X obj 193 414 loadbang;
#X msg 53 241 set slider1 \, \$1;
#X floatatom 179 209 5 0 0 0 - - -;
#X msg 179 240 set slider2 \, \$1;
#X obj 280 116 adc~ 3 4;
#X obj 53 178 snapshot~;
#X obj 53 114 bang;
#X obj 179 70 metro 10;
#X obj 179 35 loadbang;
#X obj 179 178 snapshot~;
#X obj 179 115 bang;
#X msg 193 447 connect 192.168.7.1 9999;
#X connect 0 0 7 0;
#X connect 1 0 4 0;
#X connect 2 0 3 0;
#X connect 4 0 5 0;
#X connect 5 0 3 0;
#X connect 6 0 17 0;
#X connect 7 0 1 0;
#X connect 8 0 9 0;
#X connect 9 0 1 0;
#X connect 10 0 11 0;
#X connect 10 1 15 0;
#X connect 11 0 0 0;
#X connect 12 0 11 0;
#X connect 13 0 12 0;
#X connect 13 0 16 0;
#X connect 14 0 13 0;
#X connect 15 0 8 0;
#X connect 16 0 15 0;
#X connect 17 0 3 0;
